# xmcd
#
# Track frame offsets: 
#        150
#        16150
#        33552
#        53790
#        75540
#        94313
#        113929
#        131469
#        153069
#        168435
#        186973
#        205544
#        224064
#
# Disc length: 3164 seconds
#
# Revision: 1
# Processed by: cddbd v1.5.2PL0 Copyright (c) Steve Scherf et al.
# Submitted via: ExactAudioCopy v0.90b4
#
DISCID=a90c5a0d
DTITLE=James, Teresa - The Bottom Line
DYEAR=2007
DGENRE=Blues
TTITLE0=All Time Low
TTITLE1=Put the Squeeze on Me
TTITLE2=If Momma Don't Dig It
TTITLE3=Whet My Appetite
TTITLE4=Don't Make a Habit of It
TTITLE5=I Know Handsome When I See It
TTITLE6=Eieio
TTITLE7=The Bottom Line
TTITLE8=Next Big Thang
TTITLE9=How Am I Gonna Stop Loving You
TTITLE10=In the Pink
TTITLE11=I Call Your Bluff
TTITLE12=I Do My Drinkin' on the Weekend
EXTD=
EXTT0=
EXTT1=
EXTT2=
EXTT3=
EXTT4=
EXTT5=
EXTT6=
EXTT7=
EXTT8=
EXTT9=
EXTT10=
EXTT11=
EXTT12=
PLAYORDER=
